<svg xmlns="http://www.w3.org/2000/svg" viewBox="0 0 64 64" fill="white">
  <!-- Headset -->
  <path d="M32 8C20.4 8 11 17.4 11 29v6c0 2.2 1.8 4 4 4h4c2.2 0 4-1.8 4-4v-6c0-2.2-1.8-4-4-4h-2c0-9.4 7.6-17 17-17s17 7.6 17 17h-2c-2.2 0-4 1.8-4 4v6c0 2.2 1.8 4 4 4h4c2.2 0 4-1.8 4-4v-6c0-11.6-9.4-21-21-21z"/>
  <!-- Microphone -->
  <path d="M32 42c1.1 0 2-.9 2-2v-8c0-1.1-.9-2-2-2s-2 .9-2 2v8c0 1.1.9 2 2 2z"/>
  <!-- Chat bubble -->
  <circle cx="38" cy="36" r="2"/>
  <circle cx="32" cy="36" r="2"/>
  <circle cx="26" cy="36" r="2"/>
  <path d="M48 32c0 8.8-7.2 16-16 16-2.4 0-4.7-.5-6.8-1.5L20 48l1.5-5.2C19.5 40.7 19 38.4 19 36c0-8.8 7.2-16 16-16s13 7.2 13 16z" fill="none" stroke="white" stroke-width="2"/>
</svg>
