<svg xmlns="http://www.w3.org/2000/svg" viewBox="0 0 64 64" fill="white">
  <!-- Large chat bubble -->
  <path d="M26 14c-9.4 0-17 6.3-17 14 0 4.4 2.2 8.4 5.8 11.2l-2.6 7.8 8.5-4.2c1.6.4 3.2.6 4.9.6.8 0 1.6-.1 2.4-.2-1-1.8-1.6-3.8-1.6-6 0-7.2 6.7-13 15-13 .5 0 1 0 1.5.1C41.5 18.9 34.4 14 26 14z"/>
  <!-- Eyes on large bubble -->
  <circle cx="20" cy="26" r="2.5"/>
  <circle cx="32" cy="26" r="2.5"/>
  <!-- Small chat bubble -->
  <path d="M48.5 30c-7.2 0-13 4.9-13 11 0 3.3 1.7 6.2 4.4 8.3l-1.9 5.7 6.2-3.1c1.2.3 2.4.5 3.8.5 7.2 0 13-4.9 13-11s-5.8-11-12.5-11z"/>
  <!-- Eyes on small bubble -->
  <circle cx="44" cy="40" r="1.8"/>
  <circle cx="53" cy="40" r="1.8"/>
</svg>
