<svg xmlns="http://www.w3.org/2000/svg" viewBox="0 0 64 64" fill="white">
  <!-- Phone circle -->
  <path d="M32 8C18.7 8 8 18.7 8 32c0 4.2 1.1 8.2 3 11.7L8.5 55.5l12.2-2.4C23.8 54.9 27.8 56 32 56c13.3 0 24-10.7 24-24S45.3 8 32 8zm0 44c-3.6 0-7.1-.9-10.2-2.7l-.7-.4-7.3 1.4 1.5-7.1-.5-.8C12.9 39.3 12 35.7 12 32c0-11 9-20 20-20s20 9 20 20-9 20-20 20z"/>
  <!-- Phone receiver -->
  <path d="M43.5 37.2c-.6-.3-3.5-1.7-4-1.9-.6-.2-1-.3-1.4.3s-1.6 1.9-2 2.3c-.4.4-.7.5-1.3.2-3.1-1.6-5.2-2.8-7.3-6.4-.6-.9.6-.9 1.7-2.8.2-.4.1-.7-.1-1-.2-.3-1.4-3.4-1.9-4.6-.5-1.2-1-1-1.4-1h-1.2c-.4 0-1.1.2-1.7.7-.6.6-2.2 2.1-2.2 5.2s2.3 6 2.6 6.4c.3.4 4.2 6.4 10.2 9 6 2.6 6 1.7 7.1 1.6s3.5-1.4 4-2.8c.5-1.4.5-2.6.3-2.8-.1-.3-.5-.4-1.1-.7z"/>
</svg>
